<svg xmlns="http://www.w3.org/2000/svg" version="1.1" xmlns:xlink="http://www.w3.org/1999/xlink" width="200" height="200"><svg xmlns="http://www.w3.org/2000/svg" version="1.1" xmlns:xlink="http://www.w3.org/1999/xlink" viewBox="0 0 200 200"><rect width="200" height="200" fill="url('#gradient')"></rect><defs><linearGradient id="SvgjsLinearGradient1001" gradientTransform="rotate(45 0.5 0.5)"><stop offset="0%" stop-color="#1f1e1e"></stop><stop offset="100%" stop-color="#333333"></stop></linearGradient></defs><g><g fill="#b79a75" transform="matrix(3.260569609057138,0,0,3.260569609057138,8.539263750686274,121.1927248184478)" stroke="#c06a3e" stroke-width="0"><path d="M9.08-7.79L3.74-5.95L9.08-4.15L9.08-1.15L0.45-4.67L0.45-7.27L9.08-10.78L9.08-7.79ZM16.93-4.46L16.93-14.22L20.35-14.22L20.35-4.46Q20.35-3.11 19.72-2.04Q19.09-0.98 17.96-0.39Q16.84 0.20 15.45 0.20L15.45 0.20Q13.13 0.20 11.84-0.98Q10.55-2.15 10.55-4.30L10.55-4.30L13.98-4.30Q13.98-3.32 14.32-2.88Q14.66-2.44 15.45-2.44L15.45-2.44Q16.16-2.44 16.55-2.97Q16.93-3.51 16.93-4.46L16.93-4.46ZM22.51-14.22L27.01-14.22L30.19-4.33L33.35-14.22L37.86-14.22L37.86 0L34.42 0L34.42-3.32L34.76-10.12L31.32 0L29.05 0L25.61-10.13L25.94-3.32L25.94 0L22.51 0L22.51-14.22ZM45.88-14.22L41.02 1.22L38.68 1.22L43.54-14.22L45.88-14.22ZM47.07-4.13L52.38-5.98L47.07-7.78L47.07-10.77L55.65-7.26L55.65-4.66L47.07-1.14L47.07-4.13Z"></path></g></g></svg><style>@media (prefers-color-scheme: light) { :root { filter: none; } }
@media (prefers-color-scheme: dark) { :root { filter: none; } }
</style></svg>